<?xml version="1.0" encoding="UTF-8" standalone="no"?>
<svg width="148px" height="25px" viewBox="0 0 148 25" version="1.1" xmlns="http://www.w3.org/2000/svg" xmlns:xlink="http://www.w3.org/1999/xlink">
    <!-- Generator: Sketch 40.1 (33804) - http://www.bohemiancoding.com/sketch -->
    <title>logo</title>
    <desc>Created with Sketch.</desc>
    <defs>
        <polygon id="path-1" points="11.5675504 0.168736161 0.0381343066 0.168736161 0.0381343066 24.5679581 11.5675504 24.5679581 11.5675504 0.168736161"></polygon>
        <polygon id="path-3" points="11.9316088 0.168736161 0.132389781 0.168736161 0.132389781 24.5678771 11.9316088 24.5678771 11.9316088 0.168736161"></polygon>
        <polygon id="path-5" points="0 24.5679851 147.889 24.5679851 147.889 0.168736161 0 0.168736161"></polygon>
    </defs>
    <g id="Page-1" stroke="none" stroke-width="1" fill="none" fill-rule="evenodd">
        <g id="Got-Movers-PPC---Menu---Mobile" transform="translate(-20.000000, -25.000000)">
            <g id="logo" transform="translate(20.000000, 25.000000)">
                <polygon id="Fill-1" fill="#FEFEFE" points="53.6227226 0.472353261 49.2399781 13.1772413 49.1727299 13.1772413 44.7562263 0.472353261 41.4524234 0.472353261 41.4524234 24.4671754 44.8909927 24.4671754 44.8909927 9.87460215 44.9585109 9.87460215 48.3298321 20.1869464 50.0491168 20.1869464 53.453927 9.87460215 53.5217153 9.87460215 53.5217153 24.4671754 56.9602847 24.4671754 56.9602847 0.472353261"></polygon>
                <g id="Group-21" transform="translate(0.000000, 0.101296)">
                    <g id="Group-4" transform="translate(59.956204, 0.000000)">
                        <mask id="mask-2" fill="white">
                            <use xlink:href="#path-1"></use>
                        </mask>
                        <g id="Clip-3"></g>
                        <path d="M3.47670365,18.704039 C3.47670365,19.5355708 3.70680584,20.1478806 4.16782044,20.5406984 C4.62829489,20.9340561 5.17330219,21.1306 5.80284234,21.1306 C6.43184234,21.1306 6.97711971,20.9340561 7.43786423,20.5406984 C7.89833869,20.1478806 8.12898102,19.5355708 8.12898102,18.704039 L8.12898102,6.03262825 C8.12898102,5.2016364 7.89833869,4.58932662 7.43786423,4.19596888 C6.97711971,3.80315109 6.43184234,3.60606726 5.80284234,3.60606726 C5.17330219,3.60606726 4.62829489,3.80315109 4.16782044,4.19596888 C3.70680584,4.58932662 3.47670365,5.2016364 3.47670365,6.03262825 L3.47670365,18.704039 Z M0.0381343066,6.03262825 C0.0381343066,5.06691745 0.206389781,4.2127075 0.543710949,3.4713483 C0.880762044,2.72998911 1.3242219,2.1179493 1.8751708,1.63468893 C2.42584964,1.15169855 3.04377664,0.786958459 3.72949197,0.539388763 C4.41493723,0.292629001 5.10605401,0.168709164 5.80284234,0.168709164 C6.49936058,0.168709164 7.1902073,0.292629001 7.8761927,0.539388763 C8.56136788,0.786958459 9.17929489,1.15169855 9.7302438,1.63468893 C10.2806526,2.1179493 10.7249226,2.72998911 11.0622438,3.4713483 C11.3990248,4.2127075 11.5675504,5.06691745 11.5675504,6.03262825 L11.5675504,18.704039 C11.5675504,19.6929679 11.3990248,20.5523074 11.0622438,21.2820576 C10.7249226,22.0123477 10.2806526,22.6189879 9.7302438,23.1019783 C9.17929489,23.5852387 8.56136788,23.9502488 7.8761927,24.1972785 C7.1902073,24.4440383 6.49936058,24.5679581 5.80284234,24.5679581 C5.10605401,24.5679581 4.41493723,24.4440383 3.72949197,24.1972785 C3.04377664,23.9502488 2.42584964,23.5852387 1.8751708,23.1019783 C1.3242219,22.6189879 0.880762044,22.0123477 0.543710949,21.2820576 C0.206389781,20.5523074 0.0381343066,19.6929679 0.0381343066,18.704039 L0.0381343066,6.03262825 Z" id="Fill-2" fill="#FEFEFE" mask="url(#mask-2)"></path>
                    </g>
                    <polygon id="Fill-5" fill="#FEFEFE" points="80.6937321 24.3657177 77.659462 24.3657177 72.7714109 0.370895582 76.412265 0.370895582 79.142973 17.1200519 79.2102212 17.1200519 81.9752285 0.370895582 85.6160825 0.370895582"></polygon>
                    <polygon id="Fill-7" fill="#FEFEFE" points="87.6721482 0.370949577 97.920608 0.370949577 97.920608 3.60609425 91.1109876 3.60609425 91.1109876 10.6495466 97.0447613 10.6495466 97.0447613 13.8846913 91.1109876 13.8846913 91.1109876 20.9281436 97.920608 20.9281436 97.920608 24.3657717 87.6721482 24.3657717"></polygon>
                    <path d="M103.584417,11.0876397 L105.539745,11.0876397 C106.146599,11.0876397 106.62976,11.0034066 106.989227,10.8349404 C107.348964,10.6664742 107.624439,10.425114 107.81538,10.1103198 C108.006322,9.79606559 108.135417,9.40837739 108.203205,8.94779516 C108.270723,8.48748292 108.303942,7.95346671 108.303942,7.34682646 C108.303942,6.74018622 108.270723,6.20697995 108.203205,5.74612774 C108.135417,5.28581549 107.995249,4.89272773 107.781891,4.56659448 C107.567453,4.24127116 107.270373,3.99964098 106.88849,3.84197391 C106.506066,3.68511677 106.00022,3.60628324 105.37122,3.60628324 L103.584417,3.60628324 L103.584417,11.0876397 Z M100.145577,0.370868584 L105.674512,0.370868584 C109.720205,0.370868584 111.742782,2.71886602 111.742782,7.41432093 C111.742782,8.80767666 111.523482,10.0039485 111.085424,11.0034066 C110.647366,12.0034046 109.877118,12.8065887 108.77603,13.4132289 L112.484402,24.3656907 L108.843278,24.3656907 L105.641293,14.1208409 L103.584417,14.1208409 L103.584417,24.3656907 L100.145577,24.3656907 L100.145577,0.370868584 Z" id="Fill-9" fill="#FEFEFE"></path>
                    <g id="Group-13" transform="translate(113.700730, 0.000000)">
                        <mask id="mask-4" fill="white">
                            <use xlink:href="#path-3"></use>
                        </mask>
                        <g id="Clip-12"></g>
                        <path d="M11.9316088,7.27957498 L8.49276934,7.27957498 L8.49276934,6.50446855 C8.49276934,5.71829303 8.30749927,5.03848878 7.93668905,4.46559576 C7.56533869,3.89270275 6.94201022,3.60625624 6.06535328,3.60625624 C5.59326569,3.60625624 5.20598102,3.69615887 4.90241898,3.87569414 C4.59912701,4.05576937 4.36308321,4.28606049 4.19455766,4.56683746 C4.02576204,4.84788441 3.90774015,5.17320773 3.84049197,5.54388733 C3.7732438,5.91456693 3.7392146,6.30225513 3.7392146,6.70668196 C3.7392146,7.17833328 3.75595912,7.57763054 3.78971825,7.90295385 C3.82374745,8.22908711 3.90774015,8.5095941 4.04250657,8.74555475 C4.17727299,8.9815154 4.37361606,9.18939835 4.63261606,9.36893363 C4.89080584,9.54900886 5.24487153,9.72854413 5.69454307,9.90807941 L8.32397372,10.9528937 C9.08774015,11.2450098 9.7062073,11.5878816 10.1782949,11.9806994 C10.6501124,12.3740572 11.0152511,12.8349094 11.2742511,13.3624461 C11.5319007,13.8907928 11.706638,14.497163 11.7963022,15.1823668 C11.8859664,15.8678406 11.9316088,16.6483466 11.9316088,17.5244248 C11.9316088,18.5354918 11.8303314,19.4739349 11.6283168,20.338674 C11.425492,21.203683 11.0938423,21.9450422 10.633638,22.5627516 C10.1726234,23.1810009 9.55982774,23.6696608 8.79606131,24.0287313 C8.03175474,24.3878019 7.09892263,24.5678771 5.99783504,24.5678771 C5.16628029,24.5678771 4.39090073,24.4215491 3.67169635,24.129703 C2.95195182,23.838127 2.33429489,23.4390997 1.81764526,22.9334312 C1.30045547,22.4280326 0.890214599,21.8270619 0.586922628,21.130519 C0.283630657,20.4342461 0.132389781,19.6812779 0.132389781,18.8724242 L0.132389781,17.5919192 L3.57041898,17.5919192 L3.57041898,18.6704808 C3.57041898,19.2995292 3.75595912,19.8667527 4.12703942,20.3721512 C4.49784964,20.8778197 5.1211781,21.130519 5.99783504,21.130519 C6.58254307,21.130519 7.03707591,21.0462859 7.36332409,20.8778197 C7.68903212,20.7090836 7.93668905,20.4733929 8.10467445,20.1699378 C8.27347007,19.8667527 8.37960876,19.4906735 8.42552117,19.0408904 C8.46981314,18.5919172 8.49276934,18.0973178 8.49276934,17.558172 C8.49276934,16.9293936 8.46981314,16.412386 8.42552117,16.0079591 C8.37960876,15.6035323 8.28454307,15.278209 8.13870365,15.0306393 C7.99232409,14.7836096 7.79030949,14.5813961 7.53211971,14.423999 C7.27311971,14.2671419 6.93012701,14.0986757 6.50395182,13.9183305 L4.04250657,12.9075334 C2.55899562,12.3008932 1.56512701,11.497979 1.05901022,10.497981 C0.55370365,9.498523 0.300375182,8.24582573 0.300375182,6.74015922 C0.300375182,5.84194288 0.42379854,4.98800292 0.671725547,4.17887928 C0.918842336,3.37029559 1.2831708,2.67429267 1.76714161,2.08952063 C2.25030219,1.50555852 2.86255766,1.03957674 3.60444818,0.691035326 C4.34579854,0.343033867 5.21084234,0.16862817 6.19984964,0.16862817 C7.05382044,0.16862817 7.83541168,0.32629524 8.54354307,0.640549467 C9.25140438,0.955343649 9.85825839,1.37083957 10.363565,1.88757719 C10.8696818,2.40458479 11.2569664,2.98260739 11.5270394,3.62299487 C11.7963022,4.26338235 11.9316088,4.92050845 11.9316088,5.59464317 L11.9316088,7.27957498 Z" id="Fill-11" fill="#FEFEFE" mask="url(#mask-4)"></path>
                    </g>
                    <mask id="mask-6" fill="white">
                        <use xlink:href="#path-5"></use>
                    </mask>
                    <g id="Clip-15"></g>
                    <path d="M131.093431,24.3655017 L134.53227,24.3655017 L134.53227,20.9281436 L131.093431,20.9281436 L131.093431,24.3655017 Z M127.654591,5.29129604 C127.654591,4.59502315 127.789898,3.93222751 128.059161,3.30290912 C128.329234,2.67413069 128.699774,2.12904539 129.171861,1.66846316 C129.643949,1.20815092 130.194358,0.842600896 130.823898,0.573162993 C131.452898,0.303455113 132.127,0.168736161 132.846204,0.168736161 C133.677759,0.168736161 134.436394,0.337202345 135.122109,0.674134712 C135.807285,1.01133706 136.374708,1.48298838 136.82438,2.08962862 C137.04854,2.40469278 137.23462,2.69626887 137.381,2.96597675 C137.526839,3.23541465 137.644861,3.52186116 137.735066,3.82531627 C137.82392,4.12850141 137.886307,4.47137329 137.920336,4.85312198 C137.953825,5.23541063 137.970569,5.68465378 137.970569,6.20112143 C137.970569,6.78562349 137.964898,7.27428341 137.953825,7.6671012 C137.941942,8.06045894 137.914124,8.40306084 137.869832,8.6949069 C137.82392,8.98702295 137.768285,9.2399922 137.701036,9.45327471 C137.633788,9.66709717 137.543584,9.86337107 137.430964,10.0429064 L135.104825,14.0196802 C134.947372,14.2891181 134.812606,14.5647655 134.700796,14.8452725 C134.587905,15.1265894 134.53227,15.424105 134.53227,15.7383592 L134.53227,18.4343581 L131.093431,18.4343581 L131.093431,15.3001852 C131.093431,14.8063957 131.171752,14.3344744 131.329474,13.8846913 C131.486387,13.4357181 131.688401,12.997544 131.936058,12.5704391 L134.093672,9.0655865 C134.27327,8.77401042 134.391292,8.45894626 134.447467,8.12201389 C134.503912,7.78508152 134.53227,7.44814915 134.53227,7.11094681 L134.53227,5.3247733 C134.53227,4.85312198 134.368606,4.44869515 134.043438,4.11176278 C133.71719,3.77456044 133.318292,3.60609425 132.846204,3.60609425 C132.442175,3.60609425 132.048409,3.75242225 131.666796,4.04426832 C131.284372,4.33638436 131.093431,4.76348933 131.093431,5.3247733 L131.093431,7.27968297 L127.654591,7.27968297 L127.654591,5.29129604 Z" id="Fill-14" fill="#FEFEFE" mask="url(#mask-6)"></path>
                    <path d="M5.35268467,0.439631944 C4.7064,0.439631944 4.05417372,0.556532357 3.41410073,0.787093448 C2.77996934,1.01603467 2.2003927,1.35863657 1.69157518,1.80464 C1.19085985,2.24416395 0.779268613,2.81354725 0.468414599,3.49767115 C0.157560584,4.1809851 0.000108029197,4.98767895 0.000108029197,5.89588446 L0.000108029197,19.1118406 C0.000108029197,20.0421843 0.157020438,20.8540077 0.466794161,21.5240927 C0.778188321,22.1987674 1.19004964,22.7632911 1.69130511,23.2025451 C2.20066277,23.6496284 2.77996934,23.9919603 3.41410073,24.2206316 C4.69424672,24.6817538 6.00977226,24.6822937 7.29153869,24.2203616 C7.92458978,23.9922303 8.5044365,23.6498984 9.01379416,23.2028151 C9.51558978,22.7627512 9.92772117,22.1979575 10.2385752,21.5243627 C10.5483489,20.8540077 10.7052613,20.0421843 10.7052613,19.1118406 L10.7052613,11.8980322 L5.59061898,11.8980322 L5.59061898,13.742251 L8.43853869,13.742251 L8.43853869,19.1118406 C8.43853869,20.1766333 8.11823212,20.9898066 7.48626131,21.5289523 C6.88561898,22.0419103 6.16749489,22.3021689 5.35268467,22.3021689 C4.53733431,22.3021689 3.81921022,22.0419103 3.21856788,21.5286824 C2.58713723,20.9906165 2.26683066,20.1771732 2.26683066,19.1118406 L2.26683066,5.89588446 C2.26683066,4.83109179 2.58713723,4.0176485 3.21910803,3.4787727 C3.82029051,2.96554479 4.53814453,2.70555611 5.35268467,2.70555611 C6.16668467,2.70555611 6.88426861,2.96554479 7.48599124,3.47850272 C8.11823212,4.01845843 8.43853869,4.83190172 8.43853869,5.89588446 L8.43853869,6.5014448 L10.7052613,6.5014448 L10.7052613,5.89588446 C10.7052613,4.98767895 10.5478088,4.1809851 10.2369547,3.49767115 C9.9263708,2.81435719 9.51477956,2.2447039 9.01352409,1.80464 C8.5044365,1.35863657 7.92458978,1.01603467 7.29072847,0.787093448 C6.65065547,0.556532357 5.9984292,0.439631944 5.35268467,0.439631944" id="Fill-16" fill="#FEFEFE" mask="url(#mask-6)"></path>
                    <path d="M22.1899263,19.1117596 C22.1899263,20.1765523 21.8696197,20.9897256 21.2376489,21.5288714 C20.6367365,22.0420993 19.9188825,22.3020879 19.1040723,22.3020879 C18.2884518,22.3020879 17.5705978,22.0418293 16.9699555,21.5288714 C16.3385248,20.9905355 16.0182182,20.1770922 16.0182182,19.1117596 L16.0182182,5.89580347 C16.0182182,4.83101079 16.3385248,4.01783748 16.9702255,3.4786917 C17.5716781,2.96573377 18.2895321,2.70547512 19.1040723,2.70547512 C19.9180723,2.70547512 20.6356562,2.96573377 21.2373788,3.47842172 C21.8696197,4.01864742 22.1899263,4.83182073 22.1899263,5.89580347 L22.1899263,19.1117596 Z M23.9883423,3.49759015 C23.6777584,2.81427619 23.2661672,2.24462291 22.7649117,1.804559 C22.255554,1.35855558 21.6759774,1.01595368 21.0421161,0.787012455 C20.4020431,0.556451364 19.7495467,0.439550951 19.1040723,0.439550951 C18.4577876,0.439550951 17.8055613,0.556451364 17.1654883,0.787012455 C16.5313569,1.01595368 15.9517803,1.35855558 15.4429628,1.80482898 C14.9422474,2.24408296 14.5306562,2.81346626 14.2195321,3.49759015 C13.9089482,4.18090411 13.7512255,4.98786793 13.7512255,5.89580347 L13.7512255,19.1117596 C13.7512255,20.0421033 13.908408,20.8539267 14.2179117,21.5240118 C14.5293058,22.1986864 14.9414372,22.7632101 15.4426927,23.2024641 C15.9517803,23.6495474 16.5310869,23.9918794 17.1654883,24.2205506 C18.4453642,24.6816728 19.7611599,24.6822127 21.0426562,24.2202806 C21.6759774,23.9921493 22.255554,23.6498174 22.7649117,23.2027341 C23.2669774,22.7626702 23.6788387,22.1978765 23.9899628,21.5242817 C24.2997365,20.8539267 24.4566489,20.0421033 24.4566489,19.1117596 L24.4566489,5.89580347 C24.4566489,4.98786793 24.2991964,4.18090411 23.9883423,3.49759015 L23.9883423,3.49759015 Z" id="Fill-17" fill="#FEFEFE" mask="url(#mask-6)"></path>
                    <polygon id="Fill-18" fill="#FEFEFE" mask="url(#mask-6)" points="30.2871737 24.3570784 32.5538964 24.3570784 32.5538964 2.7056641 36.7030277 2.7056641 36.7030277 0.650592643 26.1383124 0.650592643 26.1383124 2.7056641 30.2871737 2.7056641"></polygon>
                    <polygon id="Fill-19" fill="#FEFEFE" mask="url(#mask-6)" points="141.951337 2.25563801 140.985016 2.25563801 140.985016 1.46973246 143.753264 1.46973246 143.753264 2.25563801 142.786943 2.25563801 142.786943 7.2988244 141.951337 7.2988244"></polygon>
                    <polygon id="Fill-20" fill="#FEFEFE" mask="url(#mask-6)" points="144.121698 1.46970546 144.924355 1.46970546 145.997085 4.55636232 146.013559 4.55636232 147.078187 1.46970546 147.888946 1.46970546 147.888946 7.2987974 147.05361 7.2987974 147.05361 3.75371815 147.037136 3.75371815 146.209902 6.25911267 145.792369 6.25911267 144.973238 3.75371815 144.957034 3.75371815 144.957034 7.2987974 144.121698 7.2987974"></polygon>
                </g>
            </g>
        </g>
    </g>
</svg>