<?xml version="1.0" encoding="UTF-8" standalone="no"?>
<svg width="19px" height="19px" viewBox="0 0 19 19" version="1.1" xmlns="http://www.w3.org/2000/svg" xmlns:xlink="http://www.w3.org/1999/xlink">
    <!-- Generator: Sketch 40.3 (33839) - http://www.bohemiancoding.com/sketch -->
    <title>green-check-mark-icon</title>
    <desc>Created with Sketch.</desc>
    <defs></defs>
    <g id="Page-1" stroke="none" stroke-width="1" fill="none" fill-rule="evenodd">
        <g id="2---GotMovers---iPad-Portrait" transform="translate(-490.000000, -303.000000)" fill="#99CA3C">
            <path d="M505.763393,310.439732 C505.763393,310.210564 505.689733,310.022322 505.542411,309.875 L504.425223,308.770089 C504.269716,308.614583 504.085567,308.53683 503.872768,308.53683 C503.659969,308.53683 503.475819,308.614583 503.320312,308.770089 L498.311384,313.766741 L495.53683,310.992188 C495.381324,310.836681 495.197174,310.758929 494.984375,310.758929 C494.771576,310.758929 494.587426,310.836681 494.43192,310.992188 L493.314732,312.097098 C493.16741,312.24442 493.09375,312.432663 493.09375,312.66183 C493.09375,312.882814 493.16741,313.066964 493.314732,313.214286 L497.758929,317.658482 C497.914435,317.813989 498.098585,317.891741 498.311384,317.891741 C498.532367,317.891741 498.720609,317.813989 498.876116,317.658482 L505.542411,310.992188 C505.689733,310.844865 505.763393,310.660715 505.763393,310.439732 L505.763393,310.439732 Z M508.857143,312.428571 C508.857143,314.139145 508.435644,315.716697 507.592634,317.161272 C506.749624,318.605848 505.605848,319.749624 504.161272,320.592634 C502.716697,321.435644 501.139145,321.857143 499.428571,321.857143 C497.717997,321.857143 496.140446,321.435644 494.695871,320.592634 C493.251295,319.749624 492.107519,318.605848 491.264509,317.161272 C490.421499,315.716697 490,314.139145 490,312.428571 C490,310.717997 490.421499,309.140446 491.264509,307.695871 C492.107519,306.251295 493.251295,305.107519 494.695871,304.264509 C496.140446,303.421499 497.717997,303 499.428571,303 C501.139145,303 502.716697,303.421499 504.161272,304.264509 C505.605848,305.107519 506.749624,306.251295 507.592634,307.695871 C508.435644,309.140446 508.857143,310.717997 508.857143,312.428571 L508.857143,312.428571 Z" id="green-check-mark-icon"></path>
        </g>
    </g>
</svg>