<?xml version="1.0" encoding="UTF-8" standalone="no"?>
<svg width="20px" height="16px" viewBox="0 0 20 16" version="1.1" xmlns="http://www.w3.org/2000/svg" xmlns:xlink="http://www.w3.org/1999/xlink">
    <!-- Generator: Sketch 40.1 (33804) - http://www.bohemiancoding.com/sketch -->
    <title>checkmark-icon</title>
    <desc>Created with Sketch.</desc>
    <defs></defs>
    <g id="Page-1" stroke="none" stroke-width="1" fill="none" fill-rule="evenodd">
        <g id="Got-Movers-PPC---Revisions---2" transform="translate(-141.000000, -297.000000)" fill="#49B844">
            <path d="M160.940001,299.984568 C160.940001,300.327623 160.819933,300.619216 160.579794,300.859355 L151.265884,310.173265 L149.51631,311.922839 C149.276171,312.162978 148.984578,312.283046 148.641523,312.283046 C148.298467,312.283046 148.006875,312.162978 147.766736,311.922839 L146.017161,310.173265 L141.360206,305.51631 C141.120068,305.276171 141,304.984578 141,304.641523 C141,304.298467 141.120068,304.006875 141.360206,303.766736 L143.109781,302.017161 C143.34992,301.777023 143.641512,301.656955 143.984568,301.656955 C144.327623,301.656955 144.619216,301.777023 144.859355,302.017161 L148.641523,305.812194 L157.080646,297.360206 C157.320784,297.120068 157.612377,297 157.955433,297 C158.298488,297 158.590081,297.120068 158.83022,297.360206 L160.579794,299.109781 C160.819933,299.34992 160.940001,299.641512 160.940001,299.984568 L160.940001,299.984568 Z" id="checkmark-icon"></path>
        </g>
    </g>
</svg>