<?xml version="1.0" encoding="UTF-8" standalone="no"?>
<svg width="13px" height="13px" viewBox="0 0 13 13" version="1.1" xmlns="http://www.w3.org/2000/svg" xmlns:xlink="http://www.w3.org/1999/xlink">
    <!-- Generator: Sketch 40.3 (33839) - http://www.bohemiancoding.com/sketch -->
    <title>error-icon</title>
    <desc>Created with Sketch.</desc>
    <defs></defs>
    <g id="v2" stroke="none" stroke-width="1" fill="none" fill-rule="evenodd">
        <g id="Got-Movers-PPC---Homepage---Mobile---1" transform="translate(-113.000000, -297.000000)" fill="#FF5151">
            <path d="M119.428571,297 C120.594872,297 121.670475,297.287386 122.655413,297.862165 C123.640351,298.436945 124.420198,299.216792 124.994978,300.20173 C125.569757,301.186668 125.857143,302.262271 125.857143,303.428571 C125.857143,304.594872 125.569757,305.670475 124.994978,306.655413 C124.420198,307.640351 123.640351,308.420198 122.655413,308.994978 C121.670475,309.569757 120.594872,309.857143 119.428571,309.857143 C118.262271,309.857143 117.186668,309.569757 116.20173,308.994978 C115.216792,308.420198 114.436945,307.640351 113.862165,306.655413 C113.287386,305.670475 113,304.594872 113,303.428571 C113,302.262271 113.287386,301.186668 113.862165,300.20173 C114.436945,299.216792 115.216792,298.436945 116.20173,297.862165 C117.186668,297.287386 118.262271,297 119.428571,297 L119.428571,297 Z M120.5,307.438058 L120.5,305.847656 C120.5,305.769531 120.474889,305.703962 120.424665,305.650949 C120.374442,305.597935 120.313058,305.571429 120.240513,305.571429 L118.633371,305.571429 C118.560826,305.571429 118.496652,305.59933 118.440848,305.655134 C118.385044,305.710938 118.357143,305.775111 118.357143,305.847656 L118.357143,307.438058 C118.357143,307.510603 118.385044,307.574777 118.440848,307.63058 C118.496652,307.686384 118.560826,307.714286 118.633371,307.714286 L120.240513,307.714286 C120.313058,307.714286 120.374442,307.687779 120.424665,307.634766 C120.474889,307.581752 120.5,307.516183 120.5,307.438058 L120.5,307.438058 Z M120.483259,304.558594 L120.633929,299.360491 C120.633929,299.293526 120.606027,299.243304 120.550223,299.209821 C120.494419,299.165178 120.427456,299.142857 120.34933,299.142857 L118.507812,299.142857 C118.429687,299.142857 118.362723,299.165178 118.30692,299.209821 C118.251116,299.243304 118.223214,299.293526 118.223214,299.360491 L118.365513,304.558594 C118.365513,304.614398 118.393415,304.663225 118.449219,304.705078 C118.505023,304.746931 118.571986,304.767857 118.650112,304.767857 L120.198661,304.767857 C120.276786,304.767857 120.342355,304.746931 120.395368,304.705078 C120.448382,304.663225 120.477679,304.614398 120.483259,304.558594 L120.483259,304.558594 Z" id="error-icon"></path>
        </g>
    </g>
</svg>