<?xml version="1.0" encoding="UTF-8" standalone="no"?>
<svg width="91px" height="94px" viewBox="0 0 91 94" version="1.1" xmlns="http://www.w3.org/2000/svg" xmlns:xlink="http://www.w3.org/1999/xlink">
    <!-- Generator: Sketch 42 (36781) - http://www.bohemiancoding.com/sketch -->
    <title>iMover Logo</title>
    <desc>Created with Sketch.</desc>
    <defs>
        <polygon id="path-1" points="80.0451369 38.6704154 80.0451369 0.0272762592 2.11275865e-05 0.0272762592 2.11275865e-05 38.6704154"></polygon>
    </defs>
    <g id="Page-1" stroke="none" stroke-width="1" fill="none" fill-rule="evenodd">
        <g id="Got-Movers-PPC---Quote---Mobile-Copy-3" transform="translate(-32.000000, -364.000000)">
            <g id="iMover-Logo" transform="translate(32.000000, 364.000000)">
                <path d="M0.33272863,93.7718447 L0.33272863,78.8359138 L3.55717154,78.8359138 L3.55717154,93.7718447 L0.33272863,93.7718447 Z M3.2953578,73.1630006 C3.65363102,73.5284075 3.83276495,73.9988618 3.83276495,74.5743776 C3.83276495,75.131623 3.65363102,75.5929423 3.2953578,75.9583491 C2.93708457,76.323756 2.48235999,76.5064567 1.93117041,76.5064567 C1.38916733,76.5064567 0.939035926,76.3260398 0.5807627,75.9652005 C0.222489475,75.6043612 0.0433555488,75.1407582 0.0433555488,74.5743776 C0.0433555488,73.9988618 0.222489475,73.5284075 0.5807627,73.1630006 C0.939035926,72.7975937 1.38916733,72.6148931 1.93117041,72.6148931 C2.48235999,72.6148931 2.93708457,72.7975937 3.2953578,73.1630006 L3.2953578,73.1630006 Z M25.493572,93.7718447 L25.4660127,79.0962649 L19.2238219,91.7164413 L17.046634,91.7164413 L10.8182229,79.0962649 L10.8182229,93.7718447 L7.67645801,93.7718447 L7.67645801,74.1221888 L11.6312235,74.1221888 L18.1490076,87.1808513 L24.6392325,74.1221888 L28.5664386,74.1221888 L28.5664386,93.7718447 L25.493572,93.7718447 Z M43.227173,79.6854805 C44.4122306,80.3249425 45.3331627,81.2133246 45.9899969,82.3506535 C46.6468312,83.4879824 46.9752434,84.8057111 46.9752434,86.3038792 C46.9752434,87.783777 46.6468312,89.099222 45.9899969,90.2502536 C45.3331627,91.4012852 44.4122306,92.2942349 43.227173,92.9291293 C42.0421154,93.5640237 40.687128,93.8814662 39.1621702,93.8814662 C37.6188394,93.8814662 36.2546656,93.5640237 35.069608,92.9291293 C33.8845504,92.2942349 32.9636183,91.4012852 32.3067841,90.2502536 C31.6499498,89.099222 31.3215376,87.783777 31.3215376,86.3038792 C31.3215376,84.8057111 31.6499498,83.4879824 32.3067841,82.3506535 C32.9636183,81.2133246 33.8845504,80.3249425 35.069608,79.6854805 C36.2546656,79.0460185 37.6188394,78.7262923 39.1621702,78.7262923 C40.687128,78.7262923 42.0421154,79.0460185 43.227173,79.6854805 L43.227173,79.6854805 Z M35.8481594,82.857653 C34.9892223,83.7574674 34.5597602,84.915333 34.5597602,86.3312846 C34.5597602,87.7746417 34.9892223,88.9462099 35.8481594,89.8460243 C36.7070965,90.7458387 37.8117557,91.1957392 39.1621702,91.1957392 C40.5125846,91.1957392 41.6126507,90.7458387 42.4624013,89.8460243 C43.3121519,88.9462099 43.7370208,87.7746417 43.7370208,86.3312846 C43.7370208,84.9061978 43.3075587,83.7460484 42.4486216,82.8508016 C41.5896845,81.9555548 40.4942117,81.5079381 39.1621702,81.5079381 C37.8117557,81.5079381 36.7070965,81.9578386 35.8481594,82.857653 L35.8481594,82.857653 Z M53.9333048,93.7718447 L48.1182839,78.8359138 L51.5080828,78.8359138 L55.683323,90.6065235 L59.8034445,78.8359138 L63.0416671,78.8359138 L57.2955444,93.7718447 L53.9333048,93.7718447 Z M76.9309028,80.7200335 C78.1067739,82.049201 78.6947006,83.9195993 78.6947006,86.3312846 C78.6947006,86.5779342 78.6763279,86.9798758 78.6395819,87.5371212 L67.2851334,87.5371212 C67.5515417,88.697288 68.0981298,89.6107915 68.9249142,90.277659 C69.7516986,90.9445265 70.7576045,91.2779553 71.9426621,91.2779553 C72.7510734,91.2779553 73.5227273,91.1272272 74.2576467,90.8257666 C74.9925662,90.5243059 75.6310178,90.0949593 76.1730209,89.5377138 L77.8954797,91.3601714 C77.1421873,92.1640665 76.2396279,92.7852489 75.1877745,93.2237371 C74.135921,93.6622253 72.9715505,93.8814662 71.694628,93.8814662 C70.1696702,93.8814662 68.8284623,93.5640237 67.6709642,92.9291293 C66.5134661,92.2942349 65.6154999,91.4058528 64.9770386,90.2639563 C64.3385773,89.1220599 64.0193515,87.8111824 64.0193515,86.3312846 C64.0193515,84.8513868 64.3385773,83.5382256 64.9770386,82.3917616 C65.6154999,81.2452975 66.5134661,80.3477804 67.6709642,79.6991832 C68.8284623,79.050586 70.1421111,78.7262923 71.61195,78.7262923 C73.9820652,78.7262923 75.7550317,79.3908661 76.9309028,80.7200335 L76.9309028,80.7200335 Z M74.6021385,82.3506535 C73.8488461,81.660948 72.8613129,81.3161005 71.6395093,81.3161005 C70.4544517,81.3161005 69.4715117,81.660948 68.6906598,82.3506535 C67.9098079,83.0403589 67.4229311,83.9835513 67.2300147,85.1802587 L75.8147495,85.1802587 C75.7596305,83.9835513 75.3554309,83.0403589 74.6021385,82.3506535 L74.6021385,82.3506535 Z M87.807208,79.5141969 C88.6891113,78.9889245 89.7225762,78.7262923 90.9076338,78.7262923 L90.9076338,81.8231 C89.419422,81.7500186 88.2160095,82.0948662 87.2973602,82.857653 C86.3787109,83.6204398 85.8550886,84.65955 85.7264777,85.9750147 L85.7264777,93.7718447 L82.4744755,93.7718447 L82.4744755,78.8359138 L85.7264777,78.8359138 L85.7264777,81.8231 C86.2317348,80.8090959 86.9253046,80.0394693 87.807208,79.5141969 L87.807208,79.5141969 Z" id="iMover" fill="#FFFFFF"></path>
                <g id="mark" transform="translate(4.818179, 0.000000)">
                    <path d="M35.8454861,32.3867343 C35.982076,32.5280175 36.103454,32.6775794 36.2113103,32.8331325 C36.5289635,33.172125 36.8633076,33.4940154 37.2157158,33.7976054 C37.9329973,34.3364858 38.4429116,34.9232957 38.7444023,35.7651125 C38.7676426,35.7079239 38.792045,35.6514978 38.8181376,35.5963788 C38.70014,35.0007455 38.592178,34.4029335 38.4994279,33.802943 C38.4808356,33.7924856 38.4619265,33.7831176 38.4434398,33.7722245 C37.570131,33.26025 36.6821386,32.7771421 35.7821034,32.3194151 C35.8034422,32.3417459 35.8240416,32.3645125 35.8454861,32.3867343" id="Fill-1" fill="#61AF7D"></path>
                    <g id="Group-5" transform="translate(0.000000, 26.548493)">
                        <mask id="mask-2" fill="white">
                            <use xlink:href="#path-1"></use>
                        </mask>
                        <g id="Clip-4"></g>
                        <path d="M60.4297784,3.76174908 L60.4731956,8.86471888 C60.4731956,10.6711175 58.8700343,12.0556273 57.242365,12.3818749 C57.0695414,12.5442906 56.8840412,12.6812166 56.6905125,12.7789274 C55.0442509,13.6108316 53.2636179,14.2296671 51.4177007,13.7573434 C50.4881925,13.5194387 49.6262926,12.9816476 48.9662668,12.2560599 C48.4149424,12.2413542 47.8531599,12.0925548 47.3165192,11.7985507 C46.9585122,11.6024754 46.6302951,11.3562919 46.3277481,11.0765577 C46.3698976,12.268478 45.9303382,13.3440602 45.0785795,14.0697568 C44.9206508,18.2640263 45.1291801,22.8602503 41.3209326,25.3597752 C39.6788966,26.437536 37.550926,25.6553043 36.5617324,24.0729763 C35.5649329,22.4786659 36.2106976,20.3761935 37.6041676,19.3122669 C37.6283586,19.2692392 37.6524441,19.2259937 37.6753675,19.1822036 C37.8084713,18.7619488 37.9038624,18.3312366 37.9764356,17.8950779 C38.1515833,16.1181995 38.092743,14.3152867 38.204191,12.5317636 C37.7524832,13.1299023 37.0386877,13.6042957 36.3703165,13.7940531 C35.5838421,14.0173611 34.3790415,13.9476454 33.6899652,13.4325119 C32.6715099,12.671086 31.7882711,11.86892 30.9805635,10.9642501 C30.428394,10.3959584 29.9389735,9.83834191 29.5899457,9.20469175 C29.5349084,9.10469332 29.4855755,9.00349666 29.4406793,8.90142855 C29.4495529,9.0032788 29.4546236,9.1056737 29.4539897,9.20828646 C29.450398,9.76764585 29.4205025,10.3265695 29.4402568,10.8846217 C30.462832,11.3973588 31.3971995,12.0507254 32.1325452,12.8809955 C32.7934161,13.6271712 33.1236403,14.5316232 33.1201542,15.4353127 C33.3915381,16.496516 33.1821637,17.6740574 32.5100951,18.5711021 C31.4581526,19.9751105 29.4817725,21.3770492 29.567128,19.5828509 C29.8136869,14.4006884 23.980994,17.0562022 23.980994,17.0562022 C24.0985691,16.5239665 22.1655005,11.8082455 22.5333318,11.3977945 C22.4826256,10.6722068 22.4923443,9.93518134 22.4969923,9.20828646 C22.5097745,7.197207 24.080505,5.70888619 25.9754382,5.62130587 C27.3520061,5.55769032 28.5925124,6.51497373 29.1470059,7.772906 C29.0202404,6.42227366 29.6607232,5.07959327 30.8378467,4.29703477 C31.10997,4.1161008 31.4324826,3.98778038 31.7726367,3.90913238 C31.1410275,3.58157762 30.6357613,3.16469965 30.2237733,2.50577756 C29.8717878,1.94293239 24.9128262,0.689575205 24.9425105,0.0272762592 L-0.688290221,14.4056994 L40.0225911,38.0483074 L80.7334694,14.4056994 L60.4297784,3.76174908 Z" id="Fill-3" fill="#93CEC8" mask="url(#mask-2)"></path>
                    </g>
                    <polygon id="Fill-26" fill="#5BABA3" points="38.8758601 52.4358764 50.1540216 58.7420742 69.540861 47.476795 60.3056127 42.2765981"></polygon>
                    <path d="M40.6141726,52.1641464 L40.56241,33.0843813 L51.7878137,39.0282965 C51.9081353,39.092021 52.0399715,39.1240466 52.171702,39.1240466 C52.2931856,39.1240466 52.4149861,39.0969229 52.5279131,39.0423486 L60.4283628,35.2308617 L60.3036044,42.2777007" id="Fill-6" fill="#FFFFFF"></path>
                    <polygon id="Fill-8" fill="#FFFFFF" points="39.4167349 23.665913 32.9317278 27.6618196 21.3115551 21.3997177 39.7546707 11.278853"></polygon>
                    <polygon id="Fill-10" fill="#FFFFFF" points="34.6218925 28.4671446 40.2127801 25.1923595 45.5575314 28.107891 39.7546284 30.9856235"></polygon>
                    <polygon id="Fill-12" fill="#FFFFFF" points="40.9537035 23.8764761 47.3043391 27.3406917 59.6902812 21.2474325 41.3020974 11.1107729"></polygon>
                    <polygon id="Fill-14" fill="#FFFFFF" points="28.3012897 0 8.93183516 9.86727391 19.4628807 20.2741907 38.6028897 9.76073964"></polygon>
                    <path d="M34.8926003,38.6808401 L32.1446407,37.22912 C31.9390693,37.1205161 31.8109305,36.9011295 31.8140996,36.662898 L31.855721,33.5269996 C31.8619536,33.0606671 32.3423949,32.7644844 32.7437134,32.9797315 L35.4084303,34.408794 C35.606924,34.5152194 35.7325275,34.7255646 35.735591,34.956171 L35.7772123,38.114727 C35.783445,38.5868328 35.3001514,38.8961962 34.8926003,38.6808401 L34.8926003,38.6808401 Z M38.8079646,32.4629641 L19.6168269,22.2744534 L19.6168269,41.3087398 L23.930235,43.817306 L23.9785115,35.8345886 C23.9824201,35.3014815 24.2910942,34.7701173 24.8560459,35.0160829 L27.5124173,36.4208539 C28.3013214,36.8679057 28.2983636,37.4652819 28.3013214,37.8845563 L28.3013214,46.3594228 L38.8617343,52.5012652 L38.8079646,32.4629641 Z" id="Fill-16" fill="#FFFFFF"></path>
                    <polygon id="Fill-18" fill="#FFFFFF" points="61.0940191 22.3778178 41.5703332 31.9825686 51.800522 32.9145801 71.8050718 23.2634248"></polygon>
                    <path id="Fill-20" fill="#D8D8A0"></path>
                    <path id="Fill-22" fill="#D8D8A0"></path>
                    <polygon id="Fill-24" fill="#FFFFFF" points="71.8289565 10.7341666 61.3486171 19.8040674 42.1707898 9.36414458 52.6436289 0.853167402"></polygon>
                </g>
            </g>
        </g>
    </g>
</svg>